<?xml version="1.0" encoding="UTF-8"?>
<!DOCTYPE svg PUBLIC "-//W3C//DTD SVG 1.1//EN" "http://www.w3.org/Graphics/SVG/1.1/DTD/svg11.dtd">
<svg xmlns="http://www.w3.org/2000/svg" version="1.1" width="500px" height="500px" style="shape-rendering:geometricPrecision; text-rendering:geometricPrecision; image-rendering:optimizeQuality; fill-rule:evenodd; clip-rule:evenodd" xmlns:xlink="http://www.w3.org/1999/xlink">
<g><path style="opacity:1" fill="#fefefe" d="M -0.5,-0.5 C 166.167,-0.5 332.833,-0.5 499.5,-0.5C 499.5,166.167 499.5,332.833 499.5,499.5C 332.833,499.5 166.167,499.5 -0.5,499.5C -0.5,332.833 -0.5,166.167 -0.5,-0.5 Z"/></g>
<g><path style="opacity:1" fill="#a6dbe8" d="M 387.5,92.5 C 383.846,89.6964 380.013,87.0297 376,84.5C 375.312,85.3317 375.479,85.9984 376.5,86.5C 379.9,88.8556 383.233,91.1889 386.5,93.5C 384.167,97.5 381.833,101.5 379.5,105.5C 358.746,102.143 338.08,98.476 317.5,94.5C 338.577,63.355 359.91,32.355 381.5,1.5C 397.304,12.1383 412.971,22.9716 428.5,34C 414.934,53.654 401.268,73.154 387.5,92.5 Z"/></g>
<g><path style="opacity:1" fill="#44464e" d="M 390.5,45.5 C 390.56,44.9569 390.893,44.6236 391.5,44.5C 395.004,46.4177 398.337,48.5843 401.5,51C 397.674,49.7538 394.007,47.9204 390.5,45.5 Z"/></g>
<g><path style="opacity:1" fill="#42434a" d="M 389.5,69.5 C 391.794,68.7879 393.794,69.6213 395.5,72C 393.213,72.0283 391.213,71.195 389.5,69.5 Z"/></g>
<g><path style="opacity:1" fill="#291d24" d="M 317.5,94.5 C 338.08,98.476 358.746,102.143 379.5,105.5C 406.794,110.438 434.127,115.271 461.5,120C 474.702,121.867 480.202,129.367 478,142.5C 473.724,165.824 469.557,189.158 465.5,212.5C 391.185,199.407 316.851,186.407 242.5,173.5C 242.5,172.167 242.5,170.833 242.5,169.5C 244.089,161.887 245.422,154.22 246.5,146.5C 249.294,131.864 251.961,117.197 254.5,102.5C 255.489,92.844 260.823,87.5107 270.5,86.5C 286.16,89.2766 301.826,91.9432 317.5,94.5 Z"/></g>
<g><path style="opacity:1" fill="#474a52" d="M 387.5,92.5 C 387.5,93.1667 387.167,93.5 386.5,93.5C 383.233,91.1889 379.9,88.8556 376.5,86.5C 375.479,85.9984 375.312,85.3317 376,84.5C 380.013,87.0297 383.846,89.6964 387.5,92.5 Z"/></g>
<g><path style="opacity:1" fill="#f1d966" d="M 238.5,98.5 C 237.034,104.652 236.2,110.985 236,117.5C 237.598,111.244 238.765,104.911 239.5,98.5C 244.501,99.8336 249.501,101.167 254.5,102.5C 251.961,117.197 249.294,131.864 246.5,146.5C 225.671,132.811 203.338,129.977 179.5,138C 153.039,147.131 132.539,163.631 118,187.5C 107.9,206.318 108.066,224.984 118.5,243.5C 159.861,218.822 201.194,194.155 242.5,169.5C 242.5,170.833 242.5,172.167 242.5,173.5C 239.668,187.824 237.001,202.157 234.5,216.5C 233.508,216.328 232.842,216.662 232.5,217.5C 188.66,243.252 144.993,269.252 101.5,295.5C 94.1667,289.5 86.8333,283.5 79.5,277.5C 78.5084,274.862 77.5084,272.195 76.5,269.5C 81.6835,267.367 87.0169,265.534 92.5,264C 87.6268,264.255 82.7934,265.089 78,266.5C 77.1667,266.167 76.3333,265.833 75.5,265.5C 73.1545,260.145 70.8212,254.812 68.5,249.5C 68.5,243.5 68.5,237.5 68.5,231.5C 91.1667,231.167 91.1667,230.833 68.5,230.5C 68.2793,219.267 69.6126,208.267 72.5,197.5C 75.4261,198.461 78.4261,199.127 81.5,199.5C 78.9209,197.975 76.2542,196.641 73.5,195.5C 79.8556,171.442 91.8556,150.776 109.5,133.5C 114.084,138.671 114.418,138.338 110.5,132.5C 125.953,117.764 143.953,107.098 164.5,100.5C 165.596,103.032 166.929,105.365 168.5,107.5C 168.122,105.079 167.455,102.746 166.5,100.5C 178.615,95.8978 191.281,93.8978 204.5,94.5C 216.147,94.3365 227.48,95.6699 238.5,98.5 Z"/></g>
<g><path style="opacity:1" fill="#5d4e34" d="M 201.5,96.5 C 203.174,99.5544 203.674,102.888 203,106.5C 201.957,103.243 201.457,99.9099 201.5,96.5 Z"/></g>
<g><path style="opacity:1" fill="#615235" d="M 164.5,100.5 C 165.167,100.5 165.833,100.5 166.5,100.5C 167.455,102.746 168.122,105.079 168.5,107.5C 166.929,105.365 165.596,103.032 164.5,100.5 Z"/></g>
<g><path style="opacity:1" fill="#5f4f35" d="M 238.5,98.5 C 238.833,98.5 239.167,98.5 239.5,98.5C 238.765,104.911 237.598,111.244 236,117.5C 236.2,110.985 237.034,104.652 238.5,98.5 Z"/></g>
<g><path style="opacity:1" fill="#5c4d34" d="M 168.5,107.5 C 170.293,109.426 171.293,111.759 171.5,114.5C 169.707,112.574 168.707,110.241 168.5,107.5 Z"/></g>
<g><path style="opacity:1" fill="#5d4d34" d="M 203.5,107.5 C 204.775,109.608 205.275,111.942 205,114.5C 203.798,112.323 203.298,109.989 203.5,107.5 Z"/></g>
<g><path style="opacity:1" fill="#a5dbe8" d="M 274.5,113.5 C 334.238,123.153 393.904,133.32 453.5,144C 455.223,144.775 456.223,146.108 456.5,148C 453.777,160.395 451.61,172.895 450,185.5C 447.441,188.349 444.274,189.183 440.5,188C 383.315,177.912 326.148,167.745 269,157.5C 267.051,156.042 266.218,154.042 266.5,151.5C 268.472,140.529 270.306,129.529 272,118.5C 272.366,116.548 273.199,114.882 274.5,113.5 Z"/></g>
<g><path style="opacity:1" fill="#5c4c33" d="M 171.5,114.5 C 173.752,117.092 174.919,120.092 175,123.5C 173.278,120.721 172.111,117.721 171.5,114.5 Z"/></g>
<g><path style="opacity:1" fill="#6f5f3c" d="M 110.5,132.5 C 114.418,138.338 114.084,138.671 109.5,133.5C 109.5,132.833 109.833,132.5 110.5,132.5 Z"/></g>
<g><path style="opacity:1" fill="#665637" d="M 146.5,131.5 C 148.223,133.253 149.723,135.253 151,137.5C 151.667,138.5 151.667,139.5 151,140.5C 148.962,137.757 147.462,134.757 146.5,131.5 Z"/></g>
<g><path style="opacity:1" fill="#fefefe" d="M 246.5,146.5 C 245.422,154.22 244.089,161.887 242.5,169.5C 201.194,194.155 159.861,218.822 118.5,243.5C 108.066,224.984 107.9,206.318 118,187.5C 132.539,163.631 153.039,147.131 179.5,138C 203.338,129.977 225.671,132.811 246.5,146.5 Z"/></g>
<g><path style="opacity:1" fill="#605135" d="M 121.5,147.5 C 118.927,146.121 117.427,144.121 117,141.5C 119.127,143.114 120.627,145.114 121.5,147.5 Z"/></g>
<g><path style="opacity:1" fill="#635436" d="M 121.5,147.5 C 123.757,148.562 124.923,150.228 125,152.5C 123.198,151.211 122.031,149.544 121.5,147.5 Z"/></g>
<g><path style="opacity:1" fill="#625236" d="M 96.5,168.5 C 94.4559,167.969 92.7893,166.802 91.5,165C 93.7715,165.077 95.4382,166.243 96.5,168.5 Z"/></g>
<g><path style="opacity:1" fill="#665637" d="M 96.5,168.5 C 98.5441,169.031 100.211,170.198 101.5,172C 99.2285,171.923 97.5618,170.757 96.5,168.5 Z"/></g>
<g><path style="opacity:1" fill="#5472fd" d="M 242.5,173.5 C 316.851,186.407 391.185,199.407 465.5,212.5C 454.106,275.752 442.939,339.085 432,402.5C 429.755,410.622 424.422,414.622 416,414.5C 350.794,403.613 285.627,392.447 220.5,381C 214.667,379.167 210.833,375.333 209,369.5C 208.841,363.459 209.341,357.459 210.5,351.5C 212.548,343.265 214.215,334.598 215.5,325.5C 215.5,325.167 215.5,324.833 215.5,324.5C 221.829,288.528 228.162,252.528 234.5,216.5C 237.001,202.157 239.668,187.824 242.5,173.5 Z"/></g>
<g><path style="opacity:1" fill="#efd768" d="M 260.5,190.5 C 271.236,191.467 281.903,192.967 292.5,195C 293.931,195.465 295.097,196.299 296,197.5C 295.326,206.883 293.993,216.216 292,225.5C 291.167,226.333 290.333,227.167 289.5,228C 278.421,227.205 267.421,225.539 256.5,223C 254.703,221.406 253.703,219.406 253.5,217C 255.162,209.195 256.662,201.362 258,193.5C 259.045,192.627 259.878,191.627 260.5,190.5 Z"/></g>
<g><path style="opacity:1" fill="#605136" d="M 73.5,195.5 C 76.2542,196.641 78.9209,197.975 81.5,199.5C 78.4261,199.127 75.4261,198.461 72.5,197.5C 72.3284,196.508 72.6618,195.842 73.5,195.5 Z"/></g>
<g><path style="opacity:1" fill="#eed769" d="M 309.5,198.5 C 318.811,200.062 328.144,201.562 337.5,203C 340.458,203.229 342.958,204.396 345,206.5C 344.217,215.534 342.884,224.534 341,233.5C 340.535,234.931 339.701,236.097 338.5,237C 327.476,235.886 316.476,234.219 305.5,232C 304.667,231.167 303.833,230.333 303,229.5C 303.338,221.459 304.338,213.459 306,205.5C 306.133,202.596 307.3,200.262 309.5,198.5 Z"/></g>
<g><path style="opacity:1" fill="#6b5a39" d="M 81.5,199.5 C 84.8502,199.506 87.8502,200.506 90.5,202.5C 90.3333,202.833 90.1667,203.167 90,203.5C 86.9531,202.438 84.1198,201.105 81.5,199.5 Z"/></g>
<g><path style="opacity:1" fill="#362f35" d="M 41.5,235.5 C 41.2942,237.549 40.4609,237.883 39,236.5C 36.5841,231.999 33.9175,227.666 31,223.5C 33.1781,228.863 35.6781,234.196 38.5,239.5C 38.0269,240.906 37.0269,241.573 35.5,241.5C 34.448,241.649 33.448,241.483 32.5,241C 31.6959,239.229 30.5292,237.729 29,236.5C 29.4456,238.883 30.6123,241.05 32.5,243C 31.4734,243.513 30.4734,244.013 29.5,244.5C 23.0094,235.529 16.5094,226.529 10,217.5C 9.5691,211.882 12.0691,208.049 17.5,206C 19.5,205.333 21.5,205.333 23.5,206C 30.1224,215.455 36.1224,225.289 41.5,235.5 Z"/></g>
<g><path style="opacity:1" fill="#efd768" d="M 357.5,207.5 C 368.653,208.355 379.653,210.189 390.5,213C 391.333,213.833 392.167,214.667 393,215.5C 393.222,219.182 392.889,222.848 392,226.5C 390.869,232.477 389.369,238.31 387.5,244C 385.966,244.923 384.299,245.423 382.5,245.5C 373.582,243.583 364.582,242.083 355.5,241C 354.069,240.535 352.903,239.701 352,238.5C 351.591,229.026 352.591,219.693 355,210.5C 356.045,209.627 356.878,208.627 357.5,207.5 Z"/></g>
<g><path style="opacity:1" fill="#efd768" d="M 406.5,215.5 C 416.819,217.284 427.152,219.118 437.5,221C 438.931,221.465 440.097,222.299 441,223.5C 440.766,231.24 439.766,238.907 438,246.5C 437.767,248.78 436.934,250.78 435.5,252.5C 431.892,253.593 428.225,253.76 424.5,253C 417.199,251.481 409.866,250.148 402.5,249C 401.667,248.167 400.833,247.333 400,246.5C 399.7,237.383 400.7,228.383 403,219.5C 404.032,217.973 405.199,216.64 406.5,215.5 Z"/></g>
<g><path style="opacity:1" fill="#fefefe" d="M 232.5,217.5 C 205.167,257.5 177.833,297.5 150.5,337.5C 146.202,334.537 142.202,331.203 138.5,327.5C 143.652,323.749 148.652,319.749 153.5,315.5C 152.277,314.386 150.944,314.219 149.5,315C 144.978,318.424 140.311,321.591 135.5,324.5C 123.573,315.576 112.24,305.91 101.5,295.5C 144.993,269.252 188.66,243.252 232.5,217.5 Z"/></g>
<g><path style="opacity:1" fill="#a6dbe8" d="M 234.5,216.5 C 228.162,252.528 221.829,288.528 215.5,324.5C 211.993,322.08 208.326,320.246 204.5,319C 207.892,321.694 211.559,323.86 215.5,325.5C 214.215,334.598 212.548,343.265 210.5,351.5C 204.846,359.462 199.179,367.462 193.5,375.5C 178.938,363.059 164.605,350.392 150.5,337.5C 177.833,297.5 205.167,257.5 232.5,217.5C 232.842,216.662 233.508,216.328 234.5,216.5 Z"/></g>
<g><path style="opacity:1" fill="#83a7b1" d="M 19.5,216.5 C 22.1356,219.31 24.6356,222.31 27,225.5C 30.2516,230.023 32.9183,234.69 35,239.5C 29.3177,232.121 24.1511,224.455 19.5,216.5 Z"/></g>
<g><path style="opacity:1" fill="#695938" d="M 260.5,220.5 C 261.622,219.844 262.955,219.511 264.5,219.5C 272.482,220.776 280.482,221.943 288.5,223C 279.09,223.155 269.757,222.322 260.5,220.5 Z"/></g>
<g><path style="opacity:1" fill="#82a4ae" d="M 41.5,235.5 C 42.1667,235.5 42.5,235.833 42.5,236.5C 41.9653,238.446 40.632,239.446 38.5,239.5C 35.6781,234.196 33.1781,228.863 31,223.5C 33.9175,227.666 36.5841,231.999 39,236.5C 40.4609,237.883 41.2942,237.549 41.5,235.5 Z"/></g>
<g><path style="opacity:1" fill="#5d4d34" d="M 309.5,229.5 C 314.378,228.31 319.378,228.477 324.5,230C 319.448,230.726 314.448,230.559 309.5,229.5 Z"/></g>
<g><path style="opacity:1" fill="#2b1f25" d="M 68.5,249.5 C 70.8212,254.812 73.1545,260.145 75.5,265.5C 76.3333,265.833 77.1667,266.167 78,266.5C 82.7934,265.089 87.6268,264.255 92.5,264C 87.0169,265.534 81.6835,267.367 76.5,269.5C 77.5084,272.195 78.5084,274.862 79.5,277.5C 79.7054,283.878 79.3721,290.211 78.5,296.5C 76.4752,298.196 74.4752,299.863 72.5,301.5C 69.8127,301.664 67.146,301.497 64.5,301C 60.6969,299.345 57.0302,297.511 53.5,295.5C 41.0365,284.248 30.2031,271.581 21,257.5C 20.3333,255.833 20.3333,254.167 21,252.5C 23.6278,249.79 26.4611,247.456 29.5,245.5C 32.1979,245.155 34.1979,243.822 35.5,241.5C 37.0269,241.573 38.0269,240.906 38.5,239.5C 40.632,239.446 41.9653,238.446 42.5,236.5C 45.2861,234.887 47.9528,233.054 50.5,231C 54.5821,229.707 57.7487,230.874 60,234.5C 62.8607,239.563 65.694,244.563 68.5,249.5 Z"/></g>
<g><path style="opacity:1" fill="#574832" d="M 326.5,231.5 C 327.964,230.84 329.631,230.507 331.5,230.5C 333.712,230.412 335.712,230.912 337.5,232C 333.871,231.89 330.204,231.724 326.5,231.5 Z"/></g>
<g><path style="opacity:1" fill="#6b5a39" d="M 356.5,236.5 C 365.727,236.169 375.061,237.002 384.5,239C 375.123,238.828 365.79,237.995 356.5,236.5 Z"/></g>
<g><path style="opacity:1" fill="#efd768" d="M 252.5,236.5 C 260.846,237.43 269.18,238.597 277.5,240C 281.287,240.548 284.787,241.714 288,243.5C 287.466,253.911 285.632,264.077 282.5,274C 273.108,273.85 263.775,272.85 254.5,271C 249.623,271.243 246.623,269.077 245.5,264.5C 246.935,256.158 248.435,247.824 250,239.5C 251.045,238.627 251.878,237.627 252.5,236.5 Z"/></g>
<g><path style="opacity:1" fill="#7e9da7" d="M 35.5,241.5 C 34.1979,243.822 32.1979,245.155 29.5,245.5C 29.5,245.167 29.5,244.833 29.5,244.5C 30.4734,244.013 31.4734,243.513 32.5,243C 30.6123,241.05 29.4456,238.883 29,236.5C 30.5292,237.729 31.6959,239.229 32.5,241C 33.448,241.483 34.448,241.649 35.5,241.5 Z"/></g>
<g><path style="opacity:1" fill="#685738" d="M 407.5,244.5 C 415.759,244.028 424.092,244.861 432.5,247C 424.176,246.419 415.843,245.585 407.5,244.5 Z"/></g>
<g><path style="opacity:1" fill="#efd868" d="M 300.5,245.5 C 303.85,245.335 307.183,245.502 310.5,246C 319.145,247.466 327.645,249.299 336,251.5C 336.267,261.963 334.767,272.13 331.5,282C 330.271,282.781 328.938,283.281 327.5,283.5C 317.926,282.157 308.426,280.49 299,278.5C 297.395,277.899 296.062,276.899 295,275.5C 295.616,267.181 296.616,258.848 298,250.5C 298.366,248.548 299.199,246.882 300.5,245.5 Z"/></g>
<g><path style="opacity:1" fill="#eed768" d="M 348.5,253.5 C 358.556,254.544 368.556,256.044 378.5,258C 380.888,258.303 383.055,259.137 385,260.5C 384.729,270.963 382.895,281.13 379.5,291C 373.786,291.632 368.119,291.299 362.5,290C 357.208,288.838 351.875,287.838 346.5,287C 345.069,286.535 343.903,285.701 343,284.5C 342.762,280.152 343.095,275.819 344,271.5C 344.854,265.242 346.354,259.242 348.5,253.5 Z"/></g>
<g><path style="opacity:1" fill="#9dcdda" d="M 51.5,256.5 C 53.1171,257.589 53.9504,259.256 54,261.5C 54.2022,259.744 54.7022,258.078 55.5,256.5C 62.724,259.788 64.224,264.788 60,271.5C 58.9887,272.337 57.8221,272.67 56.5,272.5C 54.8331,259.183 54.4998,259.183 55.5,272.5C 54.3687,273.604 53.5354,273.271 53,271.5C 52.2522,266.519 51.7522,261.519 51.5,256.5 Z"/></g>
<g><path style="opacity:1" fill="#a2d5e2" d="M 47.5,257.5 C 48.9311,257.881 49.7645,258.881 50,260.5C 50.7354,264.813 51.2354,269.147 51.5,273.5C 45.4739,271.792 43.3072,267.792 45,261.5C 46.0946,260.307 46.928,258.973 47.5,257.5 Z"/></g>
<g><path style="opacity:1" fill="#eed768" d="M 397.5,261.5 C 406.823,262.996 416.156,264.496 425.5,266C 428.458,266.229 430.958,267.396 433,269.5C 432.382,277.164 431.382,284.831 430,292.5C 429.771,295.458 428.604,297.958 426.5,300C 415.429,299.1 404.429,297.433 393.5,295C 392.667,294.167 391.833,293.333 391,292.5C 391.554,284.495 392.554,276.495 394,268.5C 394.133,265.596 395.3,263.262 397.5,261.5 Z"/></g>
<g><path style="opacity:1" fill="#5e4f34" d="M 251.5,266.5 C 251.735,265.903 252.235,265.57 253,265.5C 258.814,266.406 264.647,267.239 270.5,268C 274.069,268.39 277.403,269.39 280.5,271C 270.897,269.423 261.23,267.923 251.5,266.5 Z"/></g>
<g><path style="opacity:1" fill="#6f5e3a" d="M 299.5,274.5 C 308.834,273.985 318.167,275.151 327.5,278C 318.175,277.038 308.842,275.871 299.5,274.5 Z"/></g>
<g><path style="opacity:1" fill="#601cea" d="M 79.5,277.5 C 86.8333,283.5 94.1667,289.5 101.5,295.5C 112.24,305.91 123.573,315.576 135.5,324.5C 136.167,325.833 137.167,326.833 138.5,327.5C 142.202,331.203 146.202,334.537 150.5,337.5C 164.605,350.392 178.938,363.059 193.5,375.5C 202.875,383.943 212.375,392.277 222,400.5C 222.847,404.072 222.347,407.406 220.5,410.5C 219.559,412.05 218.893,413.716 218.5,415.5C 214.751,414.771 211.417,413.104 208.5,410.5C 214.366,402.729 213.699,395.562 206.5,389C 202.594,387.566 198.594,387.233 194.5,388C 192.34,388.996 190.673,390.496 189.5,392.5C 188.833,392.167 188.167,391.833 187.5,391.5C 186.5,390.833 185.5,390.167 184.5,389.5C 169.859,376.529 155.192,363.529 140.5,350.5C 135.017,345.594 129.351,340.928 123.5,336.5C 123.167,335.5 122.5,334.833 121.5,334.5C 107.192,321.862 92.8588,309.195 78.5,296.5C 79.3721,290.211 79.7054,283.878 79.5,277.5 Z"/></g>
<g><path style="opacity:1" fill="#efd768" d="M 244.5,279.5 C 256.254,280.419 267.754,282.419 279,285.5C 279.923,287.034 280.423,288.701 280.5,290.5C 279.398,297.178 278.231,303.845 277,310.5C 276.767,312.78 275.934,314.78 274.5,316.5C 271.227,317.585 267.894,317.752 264.5,317C 257.218,315.453 249.884,314.119 242.5,313C 241.069,312.535 239.903,311.701 239,310.5C 239.117,301.451 240.117,292.451 242,283.5C 242.662,282.016 243.496,280.683 244.5,279.5 Z"/></g>
<g><path style="opacity:1" fill="#564732" d="M 349.5,283.5 C 354.424,282.698 359.424,283.198 364.5,285C 359.464,285.095 354.464,284.595 349.5,283.5 Z"/></g>
<g><path style="opacity:1" fill="#584932" d="M 366.5,286.5 C 369.717,285.405 373.05,285.571 376.5,287C 373.174,287.172 369.841,287.005 366.5,286.5 Z"/></g>
<g><path style="opacity:1" fill="#efd768" d="M 293.5,287.5 C 304.525,289.115 315.525,290.949 326.5,293C 327.333,293.833 328.167,294.667 329,295.5C 327.895,304.803 326.562,314.137 325,323.5C 324.167,324.333 323.333,325.167 322.5,326C 311.393,325.27 300.393,323.603 289.5,321C 288.667,320.167 287.833,319.333 287,318.5C 287.951,309.175 289.285,299.841 291,290.5C 292.045,289.627 292.878,288.627 293.5,287.5 Z"/></g>
<g><path style="opacity:1" fill="#5e4f34" d="M 394.5,291.5 C 394.735,290.903 395.235,290.57 396,290.5C 398.135,291.127 400.302,291.627 402.5,292C 399.739,292.722 397.073,292.555 394.5,291.5 Z"/></g>
<g><path style="opacity:1" fill="#5d4d34" d="M 403.5,293.5 C 407.372,292.44 411.372,292.607 415.5,294C 411.49,294.357 407.49,294.19 403.5,293.5 Z"/></g>
<g><path style="opacity:1" fill="#6a5a39" d="M 416.5,295.5 C 418.693,294.203 421.027,294.203 423.5,295.5C 421.345,295.838 419.011,295.838 416.5,295.5 Z"/></g>
<g><path style="opacity:1" fill="#601ceb" d="M 53.5,295.5 C 57.0302,297.511 60.6969,299.345 64.5,301C 67.146,301.497 69.8127,301.664 72.5,301.5C 78.1028,319.309 84.1028,336.975 90.5,354.5C 91.2341,355.708 91.5674,357.041 91.5,358.5C 101.031,385.091 110.364,411.758 119.5,438.5C 122.128,446.725 125.128,454.725 128.5,462.5C 129.793,466.384 130.459,470.384 130.5,474.5C 126.936,475.423 123.269,475.756 119.5,475.5C 115.921,475.089 113.754,473.089 113,469.5C 101.629,435.214 89.7953,401.214 77.5,367.5C 77.7678,365.901 77.4345,364.568 76.5,363.5C 69.2306,340.692 61.5639,318.025 53.5,295.5 Z"/></g>
<g><path style="opacity:1" fill="#efd768" d="M 341.5,296.5 C 351.897,297.515 362.23,299.015 372.5,301C 374.329,301.273 375.829,302.107 377,303.5C 377.085,313.331 375.751,322.998 373,332.5C 372.5,333 372,333.5 371.5,334C 366.12,334.596 360.787,334.262 355.5,333C 350.209,331.785 344.876,330.785 339.5,330C 338.069,329.535 336.903,328.701 336,327.5C 336.328,318.813 337.328,310.147 339,301.5C 339.366,299.548 340.199,297.882 341.5,296.5 Z"/></g>
<g><path style="opacity:1" fill="#fcfbfd" d="M 78.5,296.5 C 92.8588,309.195 107.192,321.862 121.5,334.5C 117.167,337.167 112.833,339.833 108.5,342.5C 104.109,336.741 99.9426,330.741 96,324.5C 93.6667,326.006 91.5,327.673 89.5,329.5C 93.5102,335.529 97.5102,341.529 101.5,347.5C 98.0834,350.255 94.4167,352.588 90.5,354.5C 84.1028,336.975 78.1028,319.309 72.5,301.5C 74.4752,299.863 76.4752,298.196 78.5,296.5 Z"/></g>
<g><path style="opacity:1" fill="#5d19eb" d="M 389.5,304.5 C 401.598,305.753 413.431,308.086 425,311.5C 423.997,324.202 422.331,336.869 420,349.5C 417.892,360.48 415.892,371.48 414,382.5C 413.535,383.931 412.701,385.097 411.5,386C 401.456,385.328 391.456,383.994 381.5,382C 379.481,381.55 377.648,380.717 376,379.5C 375.333,376.5 375.333,373.5 376,370.5C 379.441,351.523 382.774,332.523 386,313.5C 386.117,310.037 387.284,307.037 389.5,304.5 Z"/></g>
<g><path style="opacity:1" fill="#6f5e3a" d="M 242.5,306.5 C 252.873,308.334 263.206,310.168 273.5,312C 264.451,311.744 255.451,310.744 246.5,309C 244.563,308.878 243.23,308.045 242.5,306.5 Z"/></g>
<g><path style="opacity:1" fill="#32262c" d="M 138.5,327.5 C 137.167,326.833 136.167,325.833 135.5,324.5C 140.311,321.591 144.978,318.424 149.5,315C 150.944,314.219 152.277,314.386 153.5,315.5C 148.652,319.749 143.652,323.749 138.5,327.5 Z"/></g>
<g><path style="opacity:1" fill="#665537" d="M 292.5,317.5 C 292.917,316.876 293.584,316.543 294.5,316.5C 303.148,317.776 311.815,318.942 320.5,320C 311.037,320.287 301.704,319.453 292.5,317.5 Z"/></g>
<g><path style="opacity:1" fill="#474a52" d="M 215.5,324.5 C 215.5,324.833 215.5,325.167 215.5,325.5C 211.559,323.86 207.892,321.694 204.5,319C 208.326,320.246 211.993,322.08 215.5,324.5 Z"/></g>
<g><path style="opacity:1" fill="#efd768" d="M 236.5,322.5 C 239.518,322.335 242.518,322.502 245.5,323C 254.431,324.551 263.264,326.384 272,328.5C 272.667,332.167 272.667,335.833 272,339.5C 270.63,345.09 269.63,350.757 269,356.5C 268.535,357.931 267.701,359.097 266.5,360C 255.759,359.538 245.093,358.205 234.5,356C 233.069,355.535 231.903,354.701 231,353.5C 231.031,342.763 232.864,332.43 236.5,322.5 Z"/></g>
<g><path style="opacity:1" fill="#aaddea" d="M 108.5,342.5 C 108.229,344.38 108.896,345.713 110.5,346.5C 114.048,353.394 118.048,360.061 122.5,366.5C 120.851,367.648 119.351,368.981 118,370.5C 113.303,363.652 108.47,356.985 103.5,350.5C 103.068,349.29 102.401,348.29 101.5,347.5C 97.5102,341.529 93.5102,335.529 89.5,329.5C 91.5,327.673 93.6667,326.006 96,324.5C 99.9426,330.741 104.109,336.741 108.5,342.5 Z"/></g>
<g><path style="opacity:1" fill="#6e5d3a" d="M 340.5,326.5 C 341.793,325.842 343.293,325.508 345,325.5C 353.335,326.164 361.502,327.331 369.5,329C 359.825,328.574 350.158,327.74 340.5,326.5 Z"/></g>
<g><path style="opacity:1" fill="#efd768" d="M 286.5,330.5 C 298.13,332.393 309.63,334.726 321,337.5C 321.46,348.472 319.627,358.972 315.5,369C 305.491,368.118 295.491,366.785 285.5,365C 283.481,364.55 281.648,363.717 280,362.5C 279.929,352.664 281.262,342.997 284,333.5C 284.698,332.309 285.531,331.309 286.5,330.5 Z"/></g>
<g><path style="opacity:1" fill="#362b31" d="M 121.5,334.5 C 122.5,334.833 123.167,335.5 123.5,336.5C 119.167,339.833 114.833,343.167 110.5,346.5C 108.896,345.713 108.229,344.38 108.5,342.5C 112.833,339.833 117.167,337.167 121.5,334.5 Z"/></g>
<g><path style="opacity:1" fill="#efd768" d="M 333.5,339.5 C 341.882,340.177 350.215,341.343 358.5,343C 362.601,343.589 366.434,344.755 370,346.5C 368.702,355.767 367.369,365.101 366,374.5C 365.626,375.416 365.126,376.25 364.5,377C 353.394,376.7 342.394,375.366 331.5,373C 330.069,372.535 328.903,371.701 328,370.5C 328.582,362.176 329.582,353.843 331,345.5C 331.236,343.189 332.069,341.189 333.5,339.5 Z"/></g>
<g><path style="opacity:1" fill="#32272d" d="M 101.5,347.5 C 102.401,348.29 103.068,349.29 103.5,350.5C 99.5,353.167 95.5,355.833 91.5,358.5C 91.5674,357.041 91.2341,355.708 90.5,354.5C 94.4167,352.588 98.0834,350.255 101.5,347.5 Z"/></g>
<g><path style="opacity:1" fill="#5f4f35" d="M 233.5,350.5 C 233.735,349.903 234.235,349.57 235,349.5C 238.803,350.461 242.636,351.294 246.5,352C 242.053,352.369 237.719,351.869 233.5,350.5 Z"/></g>
<g><path style="opacity:1" fill="#a6dbe8" d="M 140.5,350.5 C 155.192,363.529 169.859,376.529 184.5,389.5C 181.833,392.833 179.167,396.167 176.5,399.5C 172.53,396.972 168.53,394.805 164.5,393C 168.052,396.273 172.052,398.773 176.5,400.5C 171.212,408.454 165.545,416.12 159.5,423.5C 144.399,412.866 129.566,401.866 115,390.5C 114.333,389.833 114.333,389.167 115,388.5C 123.768,375.948 132.268,363.282 140.5,350.5 Z"/></g>
<g><path style="opacity:1" fill="#685838" d="M 247.5,353.5 C 248.274,352.853 249.274,352.52 250.5,352.5C 255.984,353.349 261.317,354.516 266.5,356C 260.141,355.631 253.808,354.797 247.5,353.5 Z"/></g>
<g><path style="opacity:1" fill="#625236" d="M 282.5,358.5 C 288.492,359.598 294.492,360.765 300.5,362C 296.152,362.238 291.819,361.905 287.5,361C 285.256,360.95 283.589,360.117 282.5,358.5 Z"/></g>
<g><path style="opacity:1" fill="#75643c" d="M 301.5,363.5 C 302.274,362.853 303.274,362.52 304.5,362.5C 308.356,362.831 312.022,363.664 315.5,365C 310.801,365.052 306.134,364.552 301.5,363.5 Z"/></g>
<g><path style="opacity:1" fill="#3b2f36" d="M 76.5,363.5 C 77.4345,364.568 77.7678,365.901 77.5,367.5C 73.3488,370.803 69.0155,373.97 64.5,377C 63.0347,377.601 62.0347,377.101 61.5,375.5C 66.5189,371.476 71.5189,367.476 76.5,363.5 Z"/></g>
<g><path style="opacity:1" fill="#665637" d="M 351.5,371.5 C 344.536,371.673 337.87,370.506 331.5,368C 338.347,368.571 345.013,369.738 351.5,371.5 Z"/></g>
<g><path style="opacity:1" fill="#6c5c3a" d="M 351.5,371.5 C 355.605,371.234 359.605,371.734 363.5,373C 359.219,373.798 355.219,373.298 351.5,371.5 Z"/></g>
<g><path style="opacity:1" fill="#3c1b65" d="M 377.5,375.5 C 389.178,375.793 400.844,377.626 412.5,381C 400.799,379.606 389.133,377.772 377.5,375.5 Z"/></g>
<g><path style="opacity:1" fill="#363460" d="M 220.5,373.5 C 220.917,372.876 221.584,372.543 222.5,372.5C 289.258,383.404 355.924,394.737 422.5,406.5C 355.385,395.982 288.052,384.982 220.5,373.5 Z"/></g>
<g><path style="opacity:1" fill="#a5d8e7" d="M 208.5,410.5 C 207.833,410.5 207.167,410.5 206.5,410.5C 191.155,413.49 185.488,407.49 189.5,392.5C 190.673,390.496 192.34,388.996 194.5,388C 198.594,387.233 202.594,387.566 206.5,389C 213.699,395.562 214.366,402.729 208.5,410.5 Z"/></g>
<g><path style="opacity:1" fill="#4b5158" d="M 176.5,399.5 C 176.5,399.833 176.5,400.167 176.5,400.5C 172.052,398.773 168.052,396.273 164.5,393C 168.53,394.805 172.53,396.972 176.5,399.5 Z"/></g>
<g><path style="opacity:1" fill="#4d535b" d="M 197.5,397.5 C 199.198,394.876 201.031,394.876 203,397.5C 204.5,402.667 202.667,404.5 197.5,403C 196.193,401.057 196.193,399.223 197.5,397.5 Z"/></g>
<g><path style="opacity:1" fill="#a2d5e2" d="M 197.5,397.5 C 201.138,396.737 202.638,398.07 202,401.5C 198.331,403.009 196.831,401.676 197.5,397.5 Z"/></g>
<g><path style="opacity:1" fill="#63646b" d="M 187.5,391.5 C 188.167,391.833 188.833,392.167 189.5,392.5C 185.488,407.49 191.155,413.49 206.5,410.5C 198.008,415.696 191.508,413.696 187,404.5C 186.371,400.129 186.537,395.796 187.5,391.5 Z"/></g>
<g><path style="opacity:1" fill="#30242b" d="M 220.5,410.5 C 226.461,415.29 232.294,420.29 238,425.5C 238.833,428.667 237.667,429.833 234.5,429C 229.294,424.289 223.961,419.789 218.5,415.5C 218.893,413.716 219.559,412.05 220.5,410.5 Z"/></g>
<g><path style="opacity:1" fill="#a8dcea" d="M 119.5,438.5 C 131.879,438.249 137.046,444.249 135,456.5C 133.594,459.409 131.428,461.409 128.5,462.5C 125.128,454.725 122.128,446.725 119.5,438.5 Z"/></g>
<g><path style="opacity:1" fill="#b1dfec" d="M 130.5,474.5 C 132.999,482.483 135.165,490.483 137,498.5C 132.667,491.5 128.333,484.5 124,477.5C 122.378,476.901 120.878,476.234 119.5,475.5C 123.269,475.756 126.936,475.423 130.5,474.5 Z"/></g>
</svg>
